<mxfile host="app.diagrams.net" modified="2022-09-12T14:59:20.958Z" agent="5.0 (X11)" etag="coWM0qYkCo26kUnovvkj" version="20.2.8" type="github">
  <diagram id="TS2IJs7pAxw_JtCjiHIT" name="PÃ¡gina-1">
    <mxGraphModel dx="723" dy="401" grid="1" gridSize="10" guides="1" tooltips="1" connect="1" arrows="1" fold="1" page="1" pageScale="1" pageWidth="827" pageHeight="1169" math="0" shadow="0">
      <root>
        <mxCell id="0" />
        <mxCell id="1" parent="0" />
        <mxCell id="qNn5TuapRFsNwTc1jP_p-1" value="aprobado" style="swimlane;fontStyle=1;align=center;verticalAlign=top;childLayout=stackLayout;horizontal=1;startSize=26;horizontalStack=0;resizeParent=1;resizeParentMax=0;resizeLast=0;collapsible=1;marginBottom=0;" vertex="1" parent="1">
          <mxGeometry x="254" y="40" width="160" height="86" as="geometry" />
        </mxCell>
        <mxCell id="qNn5TuapRFsNwTc1jP_p-2" value="alumno" style="text;strokeColor=none;fillColor=none;align=center;verticalAlign=top;spacingLeft=4;spacingRight=4;overflow=hidden;rotatable=0;points=[[0,0.5],[1,0.5]];portConstraint=eastwest;" vertex="1" parent="qNn5TuapRFsNwTc1jP_p-1">
          <mxGeometry y="26" width="160" height="26" as="geometry" />
        </mxCell>
        <mxCell id="qNn5TuapRFsNwTc1jP_p-3" value="" style="line;strokeWidth=1;fillColor=none;align=left;verticalAlign=middle;spacingTop=-1;spacingLeft=3;spacingRight=3;rotatable=0;labelPosition=right;points=[];portConstraint=eastwest;strokeColor=inherit;" vertex="1" parent="qNn5TuapRFsNwTc1jP_p-1">
          <mxGeometry y="52" width="160" height="8" as="geometry" />
        </mxCell>
        <mxCell id="qNn5TuapRFsNwTc1jP_p-4" value="aprobado s/n" style="text;strokeColor=none;fillColor=none;align=center;verticalAlign=top;spacingLeft=4;spacingRight=4;overflow=hidden;rotatable=0;points=[[0,0.5],[1,0.5]];portConstraint=eastwest;" vertex="1" parent="qNn5TuapRFsNwTc1jP_p-1">
          <mxGeometry y="60" width="160" height="26" as="geometry" />
        </mxCell>
        <mxCell id="qNn5TuapRFsNwTc1jP_p-29" style="edgeStyle=orthogonalEdgeStyle;rounded=0;orthogonalLoop=1;jettySize=auto;html=1;exitX=0.5;exitY=0;exitDx=0;exitDy=0;entryX=0;entryY=0.5;entryDx=0;entryDy=0;endArrow=block;endFill=0;" edge="1" parent="1" source="qNn5TuapRFsNwTc1jP_p-5" target="qNn5TuapRFsNwTc1jP_p-2">
          <mxGeometry relative="1" as="geometry" />
        </mxCell>
        <mxCell id="qNn5TuapRFsNwTc1jP_p-5" value="alumno" style="swimlane;fontStyle=1;align=center;verticalAlign=top;childLayout=stackLayout;horizontal=1;startSize=26;horizontalStack=0;resizeParent=1;resizeParentMax=0;resizeLast=0;collapsible=1;marginBottom=0;" vertex="1" parent="1">
          <mxGeometry x="90" y="150" width="160" height="138" as="geometry" />
        </mxCell>
        <mxCell id="qNn5TuapRFsNwTc1jP_p-6" value="dni" style="text;strokeColor=none;fillColor=none;align=center;verticalAlign=top;spacingLeft=4;spacingRight=4;overflow=hidden;rotatable=0;points=[[0,0.5],[1,0.5]];portConstraint=eastwest;" vertex="1" parent="qNn5TuapRFsNwTc1jP_p-5">
          <mxGeometry y="26" width="160" height="26" as="geometry" />
        </mxCell>
        <mxCell id="qNn5TuapRFsNwTc1jP_p-7" value="" style="line;strokeWidth=1;fillColor=none;align=left;verticalAlign=middle;spacingTop=-1;spacingLeft=3;spacingRight=3;rotatable=0;labelPosition=right;points=[];portConstraint=eastwest;strokeColor=inherit;" vertex="1" parent="qNn5TuapRFsNwTc1jP_p-5">
          <mxGeometry y="52" width="160" height="8" as="geometry" />
        </mxCell>
        <mxCell id="qNn5TuapRFsNwTc1jP_p-9" value="nombre" style="text;strokeColor=none;fillColor=none;align=center;verticalAlign=top;spacingLeft=4;spacingRight=4;overflow=hidden;rotatable=0;points=[[0,0.5],[1,0.5]];portConstraint=eastwest;" vertex="1" parent="qNn5TuapRFsNwTc1jP_p-5">
          <mxGeometry y="60" width="160" height="26" as="geometry" />
        </mxCell>
        <mxCell id="qNn5TuapRFsNwTc1jP_p-10" value="apellido" style="text;strokeColor=none;fillColor=none;align=center;verticalAlign=top;spacingLeft=4;spacingRight=4;overflow=hidden;rotatable=0;points=[[0,0.5],[1,0.5]];portConstraint=eastwest;" vertex="1" parent="qNn5TuapRFsNwTc1jP_p-5">
          <mxGeometry y="86" width="160" height="26" as="geometry" />
        </mxCell>
        <mxCell id="qNn5TuapRFsNwTc1jP_p-8" value="examenes" style="text;strokeColor=none;fillColor=none;align=center;verticalAlign=top;spacingLeft=4;spacingRight=4;overflow=hidden;rotatable=0;points=[[0,0.5],[1,0.5]];portConstraint=eastwest;" vertex="1" parent="qNn5TuapRFsNwTc1jP_p-5">
          <mxGeometry y="112" width="160" height="26" as="geometry" />
        </mxCell>
        <mxCell id="qNn5TuapRFsNwTc1jP_p-28" style="edgeStyle=orthogonalEdgeStyle;rounded=0;orthogonalLoop=1;jettySize=auto;html=1;exitX=0.5;exitY=0;exitDx=0;exitDy=0;entryX=1;entryY=0.5;entryDx=0;entryDy=0;endArrow=block;endFill=0;" edge="1" parent="1" source="qNn5TuapRFsNwTc1jP_p-12" target="qNn5TuapRFsNwTc1jP_p-8">
          <mxGeometry relative="1" as="geometry">
            <Array as="points">
              <mxPoint x="494" y="140" />
              <mxPoint x="332" y="140" />
              <mxPoint x="332" y="275" />
            </Array>
          </mxGeometry>
        </mxCell>
        <mxCell id="qNn5TuapRFsNwTc1jP_p-12" value="examenes" style="swimlane;fontStyle=1;align=center;verticalAlign=top;childLayout=stackLayout;horizontal=1;startSize=26;horizontalStack=0;resizeParent=1;resizeParentMax=0;resizeLast=0;collapsible=1;marginBottom=0;" vertex="1" parent="1">
          <mxGeometry x="414" y="150" width="160" height="112" as="geometry" />
        </mxCell>
        <mxCell id="qNn5TuapRFsNwTc1jP_p-13" value="fecha de realizacion" style="text;strokeColor=none;fillColor=none;align=center;verticalAlign=top;spacingLeft=4;spacingRight=4;overflow=hidden;rotatable=0;points=[[0,0.5],[1,0.5]];portConstraint=eastwest;" vertex="1" parent="qNn5TuapRFsNwTc1jP_p-12">
          <mxGeometry y="26" width="160" height="26" as="geometry" />
        </mxCell>
        <mxCell id="qNn5TuapRFsNwTc1jP_p-14" value="" style="line;strokeWidth=1;fillColor=none;align=left;verticalAlign=middle;spacingTop=-1;spacingLeft=3;spacingRight=3;rotatable=0;labelPosition=right;points=[];portConstraint=eastwest;strokeColor=inherit;" vertex="1" parent="qNn5TuapRFsNwTc1jP_p-12">
          <mxGeometry y="52" width="160" height="8" as="geometry" />
        </mxCell>
        <mxCell id="qNn5TuapRFsNwTc1jP_p-16" value="orales" style="text;strokeColor=none;fillColor=none;align=center;verticalAlign=top;spacingLeft=4;spacingRight=4;overflow=hidden;rotatable=0;points=[[0,0.5],[1,0.5]];portConstraint=eastwest;" vertex="1" parent="qNn5TuapRFsNwTc1jP_p-12">
          <mxGeometry y="60" width="160" height="26" as="geometry" />
        </mxCell>
        <mxCell id="qNn5TuapRFsNwTc1jP_p-15" value="escritos" style="text;strokeColor=none;fillColor=none;align=center;verticalAlign=middle;spacingLeft=4;spacingRight=4;overflow=hidden;rotatable=0;points=[[0,0.5],[1,0.5]];portConstraint=eastwest;" vertex="1" parent="qNn5TuapRFsNwTc1jP_p-12">
          <mxGeometry y="86" width="160" height="26" as="geometry" />
        </mxCell>
        <mxCell id="qNn5TuapRFsNwTc1jP_p-27" style="edgeStyle=orthogonalEdgeStyle;rounded=0;orthogonalLoop=1;jettySize=auto;html=1;exitX=0.5;exitY=0;exitDx=0;exitDy=0;entryX=0;entryY=0.5;entryDx=0;entryDy=0;endArrow=block;endFill=0;" edge="1" parent="1" source="qNn5TuapRFsNwTc1jP_p-18" target="qNn5TuapRFsNwTc1jP_p-16">
          <mxGeometry relative="1" as="geometry" />
        </mxCell>
        <mxCell id="qNn5TuapRFsNwTc1jP_p-18" value="orales" style="swimlane;fontStyle=1;align=center;verticalAlign=top;childLayout=stackLayout;horizontal=1;startSize=26;horizontalStack=0;resizeParent=1;resizeParentMax=0;resizeLast=0;collapsible=1;marginBottom=0;" vertex="1" parent="1">
          <mxGeometry x="340" y="300" width="160" height="86" as="geometry" />
        </mxCell>
        <mxCell id="qNn5TuapRFsNwTc1jP_p-19" value="n de satisfaccion" style="text;strokeColor=none;fillColor=none;align=center;verticalAlign=top;spacingLeft=4;spacingRight=4;overflow=hidden;rotatable=0;points=[[0,0.5],[1,0.5]];portConstraint=eastwest;" vertex="1" parent="qNn5TuapRFsNwTc1jP_p-18">
          <mxGeometry y="26" width="160" height="26" as="geometry" />
        </mxCell>
        <mxCell id="qNn5TuapRFsNwTc1jP_p-20" value="" style="line;strokeWidth=1;fillColor=none;align=left;verticalAlign=middle;spacingTop=-1;spacingLeft=3;spacingRight=3;rotatable=0;labelPosition=right;points=[];portConstraint=eastwest;strokeColor=inherit;" vertex="1" parent="qNn5TuapRFsNwTc1jP_p-18">
          <mxGeometry y="52" width="160" height="8" as="geometry" />
        </mxCell>
        <mxCell id="qNn5TuapRFsNwTc1jP_p-21" value="suficiente" style="text;strokeColor=none;fillColor=none;align=center;verticalAlign=top;spacingLeft=4;spacingRight=4;overflow=hidden;rotatable=0;points=[[0,0.5],[1,0.5]];portConstraint=eastwest;" vertex="1" parent="qNn5TuapRFsNwTc1jP_p-18">
          <mxGeometry y="60" width="160" height="26" as="geometry" />
        </mxCell>
        <mxCell id="qNn5TuapRFsNwTc1jP_p-26" style="edgeStyle=orthogonalEdgeStyle;rounded=0;orthogonalLoop=1;jettySize=auto;html=1;exitX=0.5;exitY=0;exitDx=0;exitDy=0;entryX=1;entryY=0.5;entryDx=0;entryDy=0;endArrow=block;endFill=0;" edge="1" parent="1" source="qNn5TuapRFsNwTc1jP_p-22" target="qNn5TuapRFsNwTc1jP_p-15">
          <mxGeometry relative="1" as="geometry" />
        </mxCell>
        <mxCell id="qNn5TuapRFsNwTc1jP_p-22" value="escritos" style="swimlane;fontStyle=1;align=center;verticalAlign=top;childLayout=stackLayout;horizontal=1;startSize=26;horizontalStack=0;resizeParent=1;resizeParentMax=0;resizeLast=0;collapsible=1;marginBottom=0;" vertex="1" parent="1">
          <mxGeometry x="500" y="300" width="160" height="86" as="geometry" />
        </mxCell>
        <mxCell id="qNn5TuapRFsNwTc1jP_p-23" value="duracion" style="text;strokeColor=none;fillColor=none;align=center;verticalAlign=top;spacingLeft=4;spacingRight=4;overflow=hidden;rotatable=0;points=[[0,0.5],[1,0.5]];portConstraint=eastwest;" vertex="1" parent="qNn5TuapRFsNwTc1jP_p-22">
          <mxGeometry y="26" width="160" height="26" as="geometry" />
        </mxCell>
        <mxCell id="qNn5TuapRFsNwTc1jP_p-24" value="" style="line;strokeWidth=1;fillColor=none;align=left;verticalAlign=middle;spacingTop=-1;spacingLeft=3;spacingRight=3;rotatable=0;labelPosition=right;points=[];portConstraint=eastwest;strokeColor=inherit;" vertex="1" parent="qNn5TuapRFsNwTc1jP_p-22">
          <mxGeometry y="52" width="160" height="8" as="geometry" />
        </mxCell>
        <mxCell id="qNn5TuapRFsNwTc1jP_p-25" value="nota" style="text;strokeColor=none;fillColor=none;align=center;verticalAlign=top;spacingLeft=4;spacingRight=4;overflow=hidden;rotatable=0;points=[[0,0.5],[1,0.5]];portConstraint=eastwest;" vertex="1" parent="qNn5TuapRFsNwTc1jP_p-22">
          <mxGeometry y="60" width="160" height="26" as="geometry" />
        </mxCell>
        <mxCell id="qNn5TuapRFsNwTc1jP_p-30" style="edgeStyle=orthogonalEdgeStyle;rounded=0;orthogonalLoop=1;jettySize=auto;html=1;exitX=1;exitY=0.5;exitDx=0;exitDy=0;entryX=1;entryY=0.5;entryDx=0;entryDy=0;dashed=1;endArrow=block;endFill=0;" edge="1" parent="1" source="qNn5TuapRFsNwTc1jP_p-25" target="qNn5TuapRFsNwTc1jP_p-4">
          <mxGeometry relative="1" as="geometry" />
        </mxCell>
        <mxCell id="qNn5TuapRFsNwTc1jP_p-31" style="edgeStyle=orthogonalEdgeStyle;rounded=0;orthogonalLoop=1;jettySize=auto;html=1;exitX=0;exitY=0.5;exitDx=0;exitDy=0;entryX=1;entryY=0.5;entryDx=0;entryDy=0;dashed=1;endArrow=block;endFill=0;" edge="1" parent="1" source="qNn5TuapRFsNwTc1jP_p-21" target="qNn5TuapRFsNwTc1jP_p-4">
          <mxGeometry relative="1" as="geometry">
            <Array as="points">
              <mxPoint x="330" y="373" />
              <mxPoint x="330" y="400" />
              <mxPoint x="680" y="400" />
              <mxPoint x="680" y="113" />
            </Array>
          </mxGeometry>
        </mxCell>
        <mxCell id="qNn5TuapRFsNwTc1jP_p-33" value="&lt;div&gt;Hector&lt;/div&gt;" style="shape=umlActor;verticalLabelPosition=bottom;verticalAlign=top;html=1;" vertex="1" parent="1">
          <mxGeometry x="155" y="313" width="30" height="60" as="geometry" />
        </mxCell>
        <mxCell id="qNn5TuapRFsNwTc1jP_p-43" style="edgeStyle=orthogonalEdgeStyle;rounded=0;orthogonalLoop=1;jettySize=auto;html=1;exitX=0.5;exitY=0;exitDx=0;exitDy=0;exitPerimeter=0;entryX=0.5;entryY=0;entryDx=0;entryDy=0;entryPerimeter=0;dashed=1;endArrow=block;endFill=0;" edge="1" parent="1" source="qNn5TuapRFsNwTc1jP_p-40" target="qNn5TuapRFsNwTc1jP_p-33">
          <mxGeometry relative="1" as="geometry" />
        </mxCell>
        <mxCell id="qNn5TuapRFsNwTc1jP_p-44" style="edgeStyle=orthogonalEdgeStyle;rounded=0;orthogonalLoop=1;jettySize=auto;html=1;exitX=0;exitY=1;exitDx=0;exitDy=0;exitPerimeter=0;entryX=1;entryY=1;entryDx=0;entryDy=0;entryPerimeter=0;dashed=1;endArrow=block;endFill=0;" edge="1" parent="1" source="qNn5TuapRFsNwTc1jP_p-40" target="qNn5TuapRFsNwTc1jP_p-33">
          <mxGeometry relative="1" as="geometry" />
        </mxCell>
        <mxCell id="qNn5TuapRFsNwTc1jP_p-45" style="edgeStyle=orthogonalEdgeStyle;rounded=0;orthogonalLoop=1;jettySize=auto;html=1;exitX=1;exitY=1;exitDx=0;exitDy=0;exitPerimeter=0;dashed=1;endArrow=block;endFill=0;entryX=0;entryY=1;entryDx=0;entryDy=0;entryPerimeter=0;" edge="1" parent="1" source="qNn5TuapRFsNwTc1jP_p-40" target="qNn5TuapRFsNwTc1jP_p-33">
          <mxGeometry relative="1" as="geometry">
            <mxPoint x="150" y="380" as="targetPoint" />
            <Array as="points">
              <mxPoint x="254" y="410" />
              <mxPoint x="155" y="410" />
            </Array>
          </mxGeometry>
        </mxCell>
        <mxCell id="qNn5TuapRFsNwTc1jP_p-46" style="edgeStyle=orthogonalEdgeStyle;rounded=0;orthogonalLoop=1;jettySize=auto;html=1;exitX=0.5;exitY=0.5;exitDx=0;exitDy=0;exitPerimeter=0;entryX=0.5;entryY=0.5;entryDx=0;entryDy=0;entryPerimeter=0;dashed=1;endArrow=block;endFill=0;" edge="1" parent="1" source="qNn5TuapRFsNwTc1jP_p-40" target="qNn5TuapRFsNwTc1jP_p-33">
          <mxGeometry relative="1" as="geometry" />
        </mxCell>
        <mxCell id="qNn5TuapRFsNwTc1jP_p-47" style="edgeStyle=orthogonalEdgeStyle;rounded=0;orthogonalLoop=1;jettySize=auto;html=1;exitX=0.25;exitY=0.1;exitDx=0;exitDy=0;exitPerimeter=0;entryX=0.75;entryY=0.1;entryDx=0;entryDy=0;entryPerimeter=0;dashed=1;endArrow=block;endFill=0;" edge="1" parent="1" source="qNn5TuapRFsNwTc1jP_p-40" target="qNn5TuapRFsNwTc1jP_p-33">
          <mxGeometry relative="1" as="geometry" />
        </mxCell>
        <mxCell id="qNn5TuapRFsNwTc1jP_p-48" style="edgeStyle=orthogonalEdgeStyle;rounded=0;orthogonalLoop=1;jettySize=auto;html=1;exitX=0.75;exitY=0.1;exitDx=0;exitDy=0;exitPerimeter=0;entryX=0.25;entryY=0.1;entryDx=0;entryDy=0;entryPerimeter=0;dashed=1;endArrow=block;endFill=0;" edge="1" parent="1" source="qNn5TuapRFsNwTc1jP_p-40" target="qNn5TuapRFsNwTc1jP_p-33">
          <mxGeometry relative="1" as="geometry">
            <Array as="points">
              <mxPoint x="247" y="300" />
              <mxPoint x="163" y="300" />
            </Array>
          </mxGeometry>
        </mxCell>
        <mxCell id="qNn5TuapRFsNwTc1jP_p-49" style="edgeStyle=orthogonalEdgeStyle;rounded=0;orthogonalLoop=1;jettySize=auto;html=1;exitX=1;exitY=0.3333333333333333;exitDx=0;exitDy=0;exitPerimeter=0;entryX=0;entryY=0.3333333333333333;entryDx=0;entryDy=0;entryPerimeter=0;dashed=1;endArrow=block;endFill=0;" edge="1" parent="1" source="qNn5TuapRFsNwTc1jP_p-40" target="qNn5TuapRFsNwTc1jP_p-33">
          <mxGeometry relative="1" as="geometry" />
        </mxCell>
        <mxCell id="qNn5TuapRFsNwTc1jP_p-50" style="edgeStyle=orthogonalEdgeStyle;rounded=0;orthogonalLoop=1;jettySize=auto;html=1;exitX=0;exitY=0.3333333333333333;exitDx=0;exitDy=0;exitPerimeter=0;entryX=1;entryY=0.3333333333333333;entryDx=0;entryDy=0;entryPerimeter=0;dashed=1;endArrow=block;endFill=0;" edge="1" parent="1" source="qNn5TuapRFsNwTc1jP_p-40" target="qNn5TuapRFsNwTc1jP_p-33">
          <mxGeometry relative="1" as="geometry" />
        </mxCell>
        <mxCell id="qNn5TuapRFsNwTc1jP_p-40" value="Leto" style="shape=umlActor;verticalLabelPosition=bottom;verticalAlign=top;html=1;" vertex="1" parent="1">
          <mxGeometry x="224" y="313" width="30" height="60" as="geometry" />
        </mxCell>
      </root>
    </mxGraphModel>
  </diagram>
</mxfile>
